<?xml version="1.0" encoding="UTF-8"?>
<svg version="1.1" xmlns="http://www.w3.org/2000/svg" width="349" height="331">
<path d="M0 0 C0.58007812 1.09957031 1.16015625 2.19914063 1.7578125 3.33203125 C2.54683659 4.82554113 3.3359013 6.31902954 4.125 7.8125 C4.50398437 8.53115234 4.88296875 9.24980469 5.2734375 9.99023438 C10.68155492 20.22058983 16.28305854 30.34161607 21.9375 40.4375 C22.51951172 41.47970703 23.10152344 42.52191406 23.70117188 43.59570312 C24.86913325 45.68199515 26.04144254 47.76585953 27.21826172 49.84716797 C28.45372283 52.0333484 29.67859759 54.22553222 30.89501953 56.42236328 C31.81516846 58.0560083 31.81516846 58.0560083 32.75390625 59.72265625 C33.30506104 60.71144775 33.85621582 61.70023926 34.42407227 62.71899414 C35.8612203 65.28749903 35.8612203 65.28749903 39 66 C39 65.34 39 64.68 39 64 C40.90374355 62.55036041 42.87467159 61.18815677 44.875 59.875 C45.96554687 59.15054688 47.05609375 58.42609375 48.1796875 57.6796875 C51 56 51 56 53 56 C53 55.34 53 54.68 53 54 C54.6796875 52.7109375 54.6796875 52.7109375 56.875 51.375 C57.59429687 50.92898437 58.31359375 50.48296875 59.0546875 50.0234375 C61 49 61 49 63 49 C63 48.34 63 47.68 63 47 C65.36616262 45.36585945 67.72738738 43.85596332 70.1875 42.375 C70.91420898 41.9305957 71.64091797 41.48619141 72.38964844 41.02832031 C73.88042694 40.11689031 75.37278825 39.20804431 76.86669922 38.30175781 C78.76723211 37.1420369 80.65420058 35.96454685 82.53515625 34.7734375 C103.06730973 21.8504053 103.06730973 21.8504053 111.03515625 22.484375 C115.92609616 23.76788209 118.73753792 27.296079 121.25 31.4375 C123.94963102 36.93317744 125.27902693 41.41604714 125.25 47.5625 C125.25515625 48.65691406 125.2603125 49.75132813 125.265625 50.87890625 C125.00162841 53.98086614 124.31501748 56.19776037 123 59 C122.34 59 121.68 59 121 59 C120.72905518 59.60175049 120.45811035 60.20350098 120.17895508 60.82348633 C116.12955478 68.29923775 106.98445581 72.01660064 99.8125 75.8125 C98.73291016 76.39708984 97.65332031 76.98167969 96.54101562 77.58398438 C87.85660922 82.23615242 87.85660922 82.23615242 84 83 C84 83.66 84 84.32 84 85 C83.52433594 85.25652344 83.04867188 85.51304688 82.55859375 85.77734375 C77.32768088 88.63845079 72.1831467 91.63474777 67.0625 94.6875 C66.06851196 95.27615845 66.06851196 95.27615845 65.05444336 95.87670898 C62.45890924 97.43188853 60.14833068 98.85166932 58 101 C55.71118232 102.41885983 53.35516735 103.6915737 51 105 C51.31042917 107.87523714 51.62327519 110.75017727 51.9375 113.625 C52.02451172 114.43324219 52.11152344 115.24148437 52.20117188 116.07421875 C52.28818359 116.86699219 52.37519531 117.65976563 52.46484375 118.4765625 C52.543396 119.19924316 52.62194824 119.92192383 52.70288086 120.66650391 C52.91915021 122.36502687 53.1964169 124.05611587 53.50949097 125.73948669 C54.00687112 129.04567372 54.13382792 132.15985606 54.14526367 135.50170898 C54.15483345 137.41046059 54.15483345 137.41046059 54.16459656 139.35777283 C54.16612669 140.73721274 54.16723987 142.11665318 54.16796875 143.49609375 C54.17118863 144.93132052 54.17455323 146.36654696 54.17805481 147.80177307 C54.18403178 150.81015786 54.18589646 153.818514 54.18530273 156.8269043 C54.18520183 160.63898346 54.19878568 164.45087336 54.21607494 168.26290798 C54.22732845 171.23076683 54.22921782 174.19858207 54.22869301 177.16646004 C54.22985578 178.56914985 54.23417892 179.97184146 54.24202538 181.37450981 C54.36693689 206.03486888 49.52705474 229.15373681 38 251 C37.58878906 251.825 37.17757813 252.65 36.75390625 253.5 C33.3812912 260.03517103 28.84186753 265.4949724 24 271 C22.98292969 272.16208984 22.98292969 272.16208984 21.9453125 273.34765625 C12.52520031 283.42539891 -0.24265583 291.41879702 -13.25 296 C-14.18328125 296.33386719 -15.1165625 296.66773438 -16.078125 297.01171875 C-18.0355532 297.67379005 -20.00501391 298.30124108 -21.984375 298.89453125 C-28.66789044 300.92902105 -33.9880497 303.60104502 -39.72265625 307.609375 C-42 309 -42 309 -45 309 C-45 309.66 -45 310.32 -45 311 C-47.1953125 312.76171875 -47.1953125 312.76171875 -50.125 314.6875 C-51.55199219 315.65236328 -51.55199219 315.65236328 -53.0078125 316.63671875 C-56.65229035 318.29719234 -58.2035707 318.16043689 -62 317 C-64.67578125 315.58203125 -64.67578125 315.58203125 -67.3125 313.8125 C-68.26898438 313.1834375 -69.22546875 312.554375 -70.2109375 311.90625 C-71.91801843 310.73950561 -73.61387028 309.55583447 -75.2890625 308.34375 C-80.29393461 304.77664115 -85.0477566 302.79060092 -90.9140625 300.98046875 C-99.20572917 298.34602782 -107.10180748 294.55970794 -115 290.9375 C-115.73049561 290.60911133 -116.46099121 290.28072266 -117.21362305 289.94238281 C-121.21354627 288.07944311 -123.96008162 286.27213436 -127 283 C-127.99 282.67 -128.98 282.34 -130 282 C-131.6875 280.5625 -131.6875 280.5625 -133 279 C-133 278.34 -133 277.68 -133 277 C-133.66 277 -134.32 277 -135 277 C-135 276.34 -135 275.68 -135 275 C-135.87398437 274.64421875 -135.87398437 274.64421875 -136.765625 274.28125 C-139.47552837 272.7273194 -140.86530802 270.98070569 -142.75 268.5 C-143.36359375 267.7059375 -143.9771875 266.911875 -144.609375 266.09375 C-146 264 -146 264 -146 262 C-146.66 262 -147.32 262 -148 262 C-148 261.34 -148 260.68 -148 260 C-148.78375 260.66 -149.5675 261.32 -150.375 262 C-153 264 -153 264 -155 264 C-155 264.66 -155 265.32 -155 266 C-155.66 266 -156.32 266 -157 266 C-157 266.66 -157 267.32 -157 268 C-157.66 268 -158.32 268 -159 268 C-159.268125 268.598125 -159.53625 269.19625 -159.8125 269.8125 C-160.99917406 271.99847854 -162.09599113 273.41332594 -164 275 C-164.66 275 -165.32 275 -166 275 C-166 275.66 -166 276.32 -166 277 C-166.66 277 -167.32 277 -168 277 C-168 277.66 -168 278.32 -168 279 C-168.66 279 -169.32 279 -170 279 C-170.2475 279.556875 -170.495 280.11375 -170.75 280.6875 C-172.22924818 283.42410913 -173.93467439 285.67650869 -176 288 C-176.66 288 -177.32 288 -178 288 C-178.4021875 288.86625 -178.4021875 288.86625 -178.8125 289.75 C-180.02929189 292.05550043 -181.30333879 294.02056192 -183 296 C-183.66 296 -184.32 296 -185 296 C-185.226875 296.515625 -185.45375 297.03125 -185.6875 297.5625 C-187.48217618 300.89547005 -189.49965015 304.14703671 -192 307 C-192.66 307 -193.32 307 -194 307 C-194.37125 308.2375 -194.37125 308.2375 -194.75 309.5 C-197.08895742 316.04908078 -200.50418345 322.00717163 -204 328 C-206.3125 327.4375 -206.3125 327.4375 -209 326 C-211.49523624 320.90474069 -213.1612651 315.58504967 -214.875 310.1875 C-216.83387531 304.14326977 -218.96910455 298.44504117 -222.01953125 292.84765625 C-225.65778049 285.99151326 -225.11052014 276.49440617 -224 269 C-222.13468279 264.44643152 -219.451534 261.46176076 -216 258 C-214.88026246 256.81758681 -213.76185374 255.63391431 -212.64453125 254.44921875 C-209.51470715 251.19211658 -206.37391192 248.00593569 -203 245 C-202.34 245 -201.68 245 -201 245 C-201 244.34 -201 243.68 -201 243 C-199.3203125 241.2734375 -199.3203125 241.2734375 -197.125 239.375 C-196.40570313 238.74335938 -195.68640625 238.11171875 -194.9453125 237.4609375 C-193 236 -193 236 -191 236 C-191 235.34 -191 234.68 -191 234 C-189.5390625 232.4921875 -189.5390625 232.4921875 -187.625 230.875 C-186.99851563 230.33617187 -186.37203125 229.79734375 -185.7265625 229.2421875 C-184 228 -184 228 -182 228 C-182 227.34 -182 226.68 -182 226 C-180.29781633 224.50618709 -178.53677109 223.07902984 -176.75 221.6875 C-171.24349561 217.43049298 -171.24349561 217.43049298 -167 212 C-166.90860012 208.68966391 -166.90860012 208.68966391 -167.6875 205.3125 C-167.89761719 204.17425781 -168.10773438 203.03601563 -168.32421875 201.86328125 C-168.86632625 199.07584709 -168.86632625 199.07584709 -170 197 C-174.33664593 165.3357143 -173.44752489 131.8876243 -165.5 100.875 C-165.24605469 99.87726563 -164.99210937 98.87953125 -164.73046875 97.8515625 C-164.48941406 96.91054687 -164.24835938 95.96953125 -164 95 C-163.60302067 93.41695361 -163.2070165 91.83366196 -162.8125 90.25 C-162.544375 89.1775 -162.27625 88.105 -162 87 C-161.34 87 -160.68 87 -160 87 C-159.9175 86.34386719 -159.835 85.68773438 -159.75 85.01171875 C-158.74000926 80.9559747 -156.91447232 77.51091243 -155 73.8125 C-154.63132812 73.08869141 -154.26265625 72.36488281 -153.8828125 71.61914062 C-152.92672882 69.74361151 -151.96382391 67.87156324 -151 66 C-150.67 65.34 -150.34 64.68 -150 64 C-149.34 64 -148.68 64 -148 64 C-147.67 62.35 -147.34 60.7 -147 59 C-146.01 58.67 -145.02 58.34 -144 58 C-142.83333333 56.08333333 -142.83333333 56.08333333 -142 54 C-141.505 53.01 -141.505 53.01 -141 52 C-140.34 52 -139.68 52 -139 52 C-139 51.34 -139 50.68 -139 50 C-138.34 50 -137.68 50 -137 50 C-136.67 49.01 -136.34 48.02 -136 47 C-121.25434704 34.05440167 -103.11595631 26.64961215 -84 23 C-83.23026855 22.84096191 -82.46053711 22.68192383 -81.66748047 22.51806641 C-74.05738445 21.01557816 -66.48379006 20.37687361 -58.75 19.875 C-57.5228125 19.78863281 -56.295625 19.70226562 -55.03125 19.61328125 C-45.51499697 18.96444582 -45.51499697 18.96444582 -41.265625 19.2578125 C-36.20301341 18.85813264 -32.38395294 16.44303285 -28 14 C-27.07735352 13.50322754 -26.15470703 13.00645508 -25.20410156 12.49462891 C-22.3360746 10.94868284 -19.47942355 9.38340384 -16.625 7.8125 C-14.70086363 6.75588594 -12.77639761 5.69987188 -10.8515625 4.64453125 C-10.01447754 4.18409424 -9.17739258 3.72365723 -8.31494141 3.24926758 C-2.29392222 0 -2.29392222 0 0 0 Z M-92.96484375 76.12890625 C-100.54537552 85.4013729 -104.96271821 95.48486855 -108 107 C-108.30550781 108.15435547 -108.30550781 108.15435547 -108.6171875 109.33203125 C-109.15130885 111.54658055 -109.59280382 113.75858677 -110 116 C-110.17402344 116.94230469 -110.34804687 117.88460937 -110.52734375 118.85546875 C-113.27929944 135.66851188 -115.06036441 155.16799575 -112 172 C-106.8348022 168.6970844 -101.97009207 165.30639499 -97.41015625 161.19921875 C-96 160 -96 160 -94 159 C-94 158.34 -94 157.68 -94 157 C-93.278125 156.7525 -92.55625 156.505 -91.8125 156.25 C-88.68516987 154.8600755 -86.64868674 153.1778091 -84 151 C-81.34911176 149.17700455 -78.6862046 147.37413388 -76.01171875 145.5859375 C-75.34785156 145.06257813 -74.68398437 144.53921875 -74 144 C-74 143.34 -74 142.68 -74 142 C-73.33871094 141.79375 -72.67742187 141.5875 -71.99609375 141.375 C-67.87666979 139.48446906 -64.60651695 136.79921339 -61.0625 134 C-59.54952343 132.82378696 -58.03517909 131.64933137 -56.51953125 130.4765625 C-55.38572021 129.59919434 -55.38572021 129.59919434 -54.22900391 128.70410156 C-50.94849641 126.19611226 -47.61206859 123.77211893 -44.25 121.375 C-43.69062744 120.97410156 -43.13125488 120.57320312 -42.55493164 120.16015625 C-40.12362824 118.43478685 -37.70079065 116.8293698 -35.109375 115.3515625 C-34.06523437 114.68253906 -34.06523437 114.68253906 -33 114 C-33 113.34 -33 112.68 -33 112 C-32.34 111.773125 -31.68 111.54625 -31 111.3125 C-27.11341372 109.6121185 -23.36320183 107.60376916 -20 105 C-20 104.34 -20 103.68 -20 103 C-18.02 102.34 -16.04 101.68 -14 101 C-15.54416179 96.27486493 -17.13177139 91.60829725 -19 87 C-19.67795528 85.00379834 -20.34733531 83.00461299 -21 81 C-21.66 81 -22.32 81 -23 81 C-23.25652344 80.2575 -23.51304687 79.515 -23.77734375 78.75 C-27.59421013 70.16509927 -36.33874597 65.37002203 -44.640625 61.89453125 C-62.92234596 57.0264916 -80.26331873 62.36681652 -92.96484375 76.12890625 Z M-7 145 C-7.74721313 145.589021 -7.74721313 145.589021 -8.50952148 146.18994141 C-10.81616486 148.00506626 -13.12679995 149.81504267 -15.4375 151.625 C-16.22060547 152.24246094 -17.00371094 152.85992187 -17.81054688 153.49609375 C-22.52069022 157.17892188 -27.29247589 160.58650911 -32.36743164 163.75146484 C-32.9061792 164.16348145 -33.44492676 164.57549805 -34 165 C-34 165.66 -34 166.32 -34 167 C-34.58136719 167.27199219 -35.16273438 167.54398438 -35.76171875 167.82421875 C-37.97896152 168.98894837 -39.83230816 170.28400162 -41.8125 171.8125 C-44.49547763 173.87129521 -47.20828872 175.84166997 -50 177.75 C-50.99 178.4925 -51.98 179.235 -53 180 C-53 180.66 -53 181.32 -53 182 C-54.65 182.66 -56.3 183.32 -58 184 C-58 184.66 -58 185.32 -58 186 C-58.7425 186.268125 -59.485 186.53625 -60.25 186.8125 C-62.89061949 187.95276751 -64.85552844 189.09380306 -67 191 C-67 191.66 -67 192.32 -67 193 C-67.59095459 193.27779297 -68.18190918 193.55558594 -68.79077148 193.84179688 C-70.85760098 194.92534634 -72.53120357 196.07658821 -74.34765625 197.53125 C-74.95287109 198.01207031 -75.55808594 198.49289063 -76.18164062 198.98828125 C-76.80232422 199.48714844 -77.42300781 199.98601562 -78.0625 200.5 C-79.30261128 201.49055328 -80.54347004 202.48017165 -81.78515625 203.46875 C-82.33051025 203.90638672 -82.87586426 204.34402344 -83.43774414 204.79492188 C-84.9093247 205.93005575 -86.45362199 206.96908133 -88 208 C-88 208.66 -88 209.32 -88 210 C-88.54140625 210.23460937 -89.0828125 210.46921875 -89.640625 210.7109375 C-92.65591544 212.3583644 -95.11184012 214.42653344 -97.75 216.625 C-98.73484375 217.44226563 -99.7196875 218.25953125 -100.734375 219.1015625 C-101.48203125 219.72804688 -102.2296875 220.35453125 -103 221 C-101.31534331 232.04386053 -95.89406379 242.10593621 -88 250 C-87.34 250 -86.68 250 -86 250 C-86 250.66 -86 251.32 -86 252 C-74.98988961 260.40985027 -63.43516039 261.98506268 -50 261 C-39.58913482 259.31630213 -29.49606386 253.34593635 -23 245 C-23 244.34 -23 243.68 -23 243 C-22.34 242.67 -21.68 242.34 -21 242 C-12.3857451 230.77802848 -8.16102166 214.93225996 -7 201 C-6.92136719 200.25621094 -6.84273438 199.51242188 -6.76171875 198.74609375 C-5.41328939 185.56368735 -4.90998211 172.30801867 -4.8125 159.0625 C-4.79304321 157.65037231 -4.79304321 157.65037231 -4.77319336 156.2097168 C-4.77138062 154.88580933 -4.77138062 154.88580933 -4.76953125 153.53515625 C-4.76542236 152.755354 -4.76131348 151.97555176 -4.75708008 151.17211914 C-5.02924423 148.73850664 -5.78815766 147.1105929 -7 145 Z " fill="#050505" transform="translate(224,2)"/>
</svg>
