<?xml version="1.0" encoding="UTF-8"?>
<svg version="1.1" xmlns="http://www.w3.org/2000/svg" width="500" height="500">
<path d="M0 0 C0.58007812 1.09957031 1.16015625 2.19914062 1.7578125 3.33203125 C8.9176298 17.43774467 8.9176298 17.43774467 17 31 C17 31.99 17 32.98 17 34 C17.66 34 18.32 34 19 34 C19.45826172 34.96873047 19.45826172 34.96873047 19.92578125 35.95703125 C23.2696395 42.84255344 26.90234508 49.5358078 30.6875 56.1875 C31.16292236 57.03739502 31.63834473 57.88729004 32.12817383 58.76293945 C32.58474365 59.55659912 33.04131348 60.35025879 33.51171875 61.16796875 C33.91865967 61.88235107 34.32560059 62.5967334 34.74487305 63.33276367 C35.98702399 65.31107898 35.98702399 65.31107898 39 66 C39 65.34 39 64.68 39 64 C39.99 64 40.98 64 42 64 C42 63.34 42 62.68 42 62 C43.8984375 60.4921875 43.8984375 60.4921875 46.375 58.875 C47.18710937 58.33617187 47.99921875 57.79734375 48.8359375 57.2421875 C51 56 51 56 53 56 C53 55.34 53 54.68 53 54 C54.88671875 52.546875 54.88671875 52.546875 57.6875 50.75 C58.77675781 50.04488281 59.86601562 49.33976562 60.98828125 48.61328125 C61.61557129 48.20803223 62.24286133 47.8027832 62.88916016 47.38525391 C65.2732201 45.82069733 67.62712154 44.21584146 69.98046875 42.60546875 C79.71219446 35.97157775 89.26854793 29.87933648 100 25 C100.68320312 24.62617187 101.36640625 24.25234375 102.0703125 23.8671875 C105.9732016 22.11325758 109.8606108 22.08155309 114 23 C119.90288718 27.1063563 123.40983767 34.13125149 125 41 C125.64945152 47.06601115 125.98117208 52.69637858 123.5625 58.375 C116.29668705 65.8180279 108.91616911 71.12229619 99.6875 75.9375 C98.61693359 76.51306641 97.54636719 77.08863281 96.44335938 77.68164062 C87.91255694 82.21680109 87.91255694 82.21680109 84 83 C84 83.66 84 84.32 84 85 C83.41992188 85.31453125 82.83984375 85.6290625 82.2421875 85.953125 C77.67772758 88.45378621 73.31861506 91.08962898 69 94 C62.48453608 98 62.48453608 98 60 98 C60 98.66 60 99.32 60 100 C57.03 101.65 54.06 103.3 51 105 C51.21221191 106.26875977 51.42442383 107.53751953 51.64306641 108.84472656 C54.14976862 125.02319978 54.46769606 140.99418446 54.39111328 157.31689453 C54.37395871 161.02013746 54.38421956 164.72273634 54.4014473 168.42595768 C54.4621246 183.82884268 54.24853755 198.87129746 51 214 C50.73590332 215.26352295 50.47180664 216.5270459 50.19970703 217.82885742 C49.53362581 220.90710088 48.78946042 223.95133901 48 227 C47.79890625 227.83273437 47.5978125 228.66546875 47.390625 229.5234375 C45.35623026 237.18963231 41.67675802 244.02400822 38 251 C37.5875 251.82757813 37.175 252.65515625 36.75 253.5078125 C23.66420264 278.86154488 0.0276144 291.66189759 -25.90039062 300.22558594 C-28.03790361 300.96231578 -28.03790361 300.96231578 -30.08398438 302.09472656 C-32 303 -32 303 -35 303 C-35 303.66 -35 304.32 -35 305 C-41.625 309 -41.625 309 -45 309 C-45 309.66 -45 310.32 -45 311 C-47.3359375 312.69140625 -47.3359375 312.69140625 -50.375 314.5625 C-51.37273437 315.18253906 -52.37046875 315.80257813 -53.3984375 316.44140625 C-54.90395068 317.34335784 -56.43026458 318.21513229 -58 319 C-60.55491968 317.5490952 -62.98498429 316.0466827 -65.4375 314.4375 C-66.90368682 313.50192697 -68.37113748 312.56833164 -69.83984375 311.63671875 C-70.55640137 311.18087402 -71.27295898 310.7250293 -72.01123047 310.25537109 C-81.23371447 304.43386204 -90.7953792 300.67046938 -101 297 C-112.3485883 292.85156646 -124.25879535 287.56050792 -133 279 C-133 278.34 -133 277.68 -133 277 C-133.58523437 276.74863281 -134.17046875 276.49726563 -134.7734375 276.23828125 C-139.532077 273.59180981 -143.11355178 268.84997888 -145.4375 264 C-145.623125 263.34 -145.80875 262.68 -146 262 C-146.66 262 -147.32 262 -148 262 C-148 261.34 -148 260.68 -148 260 C-153.03075847 264.28149657 -157.77827013 268.71145091 -162.3359375 273.49609375 C-164 275 -164 275 -166 275 C-166 275.66 -166 276.32 -166 277 C-166.66 277 -167.32 277 -168 277 C-168.2475 277.556875 -168.495 278.11375 -168.75 278.6875 C-170.22924818 281.42410913 -171.93467439 283.67650869 -174 286 C-174.66 286 -175.32 286 -176 286 C-176.32677734 286.80630859 -176.32677734 286.80630859 -176.66015625 287.62890625 C-178.46565258 290.82405573 -180.91654555 293.30479529 -183.4375 295.9375 C-186.15644316 298.77792026 -188.69113391 301.48382242 -190.72265625 304.87890625 C-191.14417969 305.57886719 -191.56570312 306.27882813 -192 307 C-192.66 307 -193.32 307 -194 307 C-194.38285156 308.25683594 -194.38285156 308.25683594 -194.7734375 309.5390625 C-196.11768918 313.33207838 -197.79014193 316.80224791 -199.625 320.375 C-199.94984375 321.01566406 -200.2746875 321.65632813 -200.609375 322.31640625 C-201.40257407 323.87947501 -202.20077031 325.44000622 -203 327 C-205.34375 326.7578125 -205.34375 326.7578125 -208 326 C-212.34633842 320.56707697 -214.05200174 313.0247266 -216.12060547 306.47143555 C-217.57342341 301.97317795 -219.45917498 298.14770421 -221.86328125 294.10546875 C-225.25985439 287.81422159 -227.36776805 280.1248281 -226 273 C-224.14360981 268.67529842 -221.60233394 264.90350091 -219 261 C-218.34 261 -217.68 261 -217 261 C-216.79375 260.46890625 -216.5875 259.9378125 -216.375 259.390625 C-214.42038808 255.99226564 -211.77876283 253.48944072 -209 250.75 C-208.4534375 250.19570313 -207.906875 249.64140625 -207.34375 249.0703125 C-203.2533867 245 -203.2533867 245 -201 245 C-201 244.34 -201 243.68 -201 243 C-200.34 243 -199.68 243 -199 243 C-199 242.34 -199 241.68 -199 241 C-198.34 241 -197.68 241 -197 241 C-197 240.34 -197 239.68 -197 239 C-195.26608049 237.39365985 -193.461909 235.8624713 -191.625 234.375 C-190.62726563 233.55773437 -189.62953125 232.74046875 -188.6015625 231.8984375 C-186 230 -186 230 -184 230 C-184 229.34 -184 228.68 -184 228 C-183.34 228 -182.68 228 -182 228 C-182 227.34 -182 226.68 -182 226 C-181.34 226 -180.68 226 -180 226 C-180 225.34 -180 224.68 -180 224 C-178.44684614 222.62751319 -176.83114316 221.32521299 -175.1875 220.0625 C-173.44898485 218.72035627 -171.71898565 217.36706732 -170 216 C-169.16275391 215.36312256 -169.16275391 215.36312256 -168.30859375 214.71337891 C-166.75076871 213.03813985 -166.75076871 213.03813985 -167.02661133 210.57543945 C-167.30154419 209.10917114 -167.30154419 209.10917114 -167.58203125 207.61328125 C-167.77273193 206.47109131 -167.96343262 205.32890137 -168.15991211 204.15209961 C-168.37526611 202.88503174 -168.59062012 201.61796387 -168.8125 200.3125 C-171.01468015 186.02802306 -171.43679596 171.87466688 -171.4375 157.4375 C-171.4429483 156.43804352 -171.44839661 155.43858704 -171.45401001 154.40884399 C-171.58277097 122.62053442 -166.05216051 91.7350939 -150 64 C-149.34 64 -148.68 64 -148 64 C-147.01 61.03 -147.01 61.03 -146 58 C-145.34 58 -144.68 58 -144 58 C-143.5359375 57.071875 -143.5359375 57.071875 -143.0625 56.125 C-142.375 54.75 -141.6875 53.375 -141 52 C-140.34 52 -139.68 52 -139 52 C-139 51.34 -139 50.68 -139 50 C-138.34 50 -137.68 50 -137 50 C-137 49.34 -137 48.68 -137 48 C-135.1639741 46.33171733 -133.34042718 44.81611621 -131.375 43.3125 C-130.79540527 42.86769287 -130.21581055 42.42288574 -129.61865234 41.96459961 C-106.19361306 24.53865575 -77.96638249 21.05232205 -49.74609375 19.4296875 C-40.26960009 18.916086 -40.26960009 18.916086 -31 17 C-31 16.34 -31 15.68 -31 15 C-29.99582031 14.50371094 -28.99164063 14.00742188 -27.95703125 13.49609375 C-20.03768883 9.56657479 -12.20519009 5.54581285 -4.4765625 1.25 C-2 0 -2 0 0 0 Z M-92.96484375 76.12890625 C-100.54537552 85.4013729 -104.96271821 95.48486855 -108 107 C-108.30550781 108.15435547 -108.30550781 108.15435547 -108.6171875 109.33203125 C-111.46287538 121.13069102 -112.34429984 133.05786252 -112.63305664 145.14306641 C-112.68796329 147.39399261 -112.75821403 149.64408891 -112.83007812 151.89453125 C-112.87069232 153.35414188 -112.9104373 154.81377702 -112.94921875 156.2734375 C-112.98362061 157.56685059 -113.01802246 158.86026367 -113.0534668 160.19287109 C-112.996829 164.22579252 -112.57063095 168.01139761 -112 172 C-109.46326712 170.6446674 -109.46326712 170.6446674 -107 169 C-107 168.34 -107 167.68 -107 167 C-105.02 166.505 -105.02 166.505 -103 166 C-103 165.34 -103 164.68 -103 164 C-102.1646875 163.5978125 -102.1646875 163.5978125 -101.3125 163.1875 C-98.78774666 161.89100504 -96.36285516 160.57523677 -94 159 C-94 158.34 -94 157.68 -94 157 C-93.278125 156.75121094 -92.55625 156.50242187 -91.8125 156.24609375 C-88.7310493 154.8808399 -86.57732003 153.22503259 -84 151.0625 C-81.44808971 148.92926249 -79.06917934 147.04006637 -76.1875 145.37109375 C-75.465625 144.91863281 -74.74375 144.46617187 -74 144 C-74 143.34 -74 142.68 -74 142 C-73.236875 141.71125 -72.47375 141.4225 -71.6875 141.125 C-68.84970692 140.03730987 -68.84970692 140.03730987 -66 138 C-66 137.34 -66 136.68 -66 136 C-65.30261719 135.76410156 -64.60523438 135.52820313 -63.88671875 135.28515625 C-60.4428736 133.75196944 -57.79167041 131.74311884 -54.8125 129.4375 C-49.15489749 125.07744875 -49.15489749 125.07744875 -47 124 C-47 123.34 -47 122.68 -47 122 C-46.27425781 121.731875 -45.54851562 121.46375 -44.80078125 121.1875 C-42.03135976 120.01329619 -39.69080566 118.6605676 -37.1875 117 C-36.00220703 116.2265625 -36.00220703 116.2265625 -34.79296875 115.4375 C-34.20128906 114.963125 -33.60960937 114.48875 -33 114 C-33 113.34 -33 112.68 -33 112 C-32.27941406 111.74089844 -31.55882812 111.48179687 -30.81640625 111.21484375 C-27.87550333 109.94629894 -25.53499065 108.42932095 -22.9375 106.5625 C-22.10089844 105.96566406 -21.26429688 105.36882812 -20.40234375 104.75390625 C-18.25496766 103.18614712 -16.12169128 101.60229341 -14 100 C-14.78793587 97.58205939 -15.58019174 95.1656813 -16.375 92.75 C-16.59671875 92.06808594 -16.8184375 91.38617188 -17.046875 90.68359375 C-18.15573613 87.3243968 -19.28878245 84.10258135 -21 81 C-21.66 81 -22.32 81 -23 81 C-23.25652344 80.2575 -23.51304687 79.515 -23.77734375 78.75 C-27.59421013 70.16509927 -36.33874597 65.37002203 -44.640625 61.89453125 C-62.92234596 57.0264916 -80.26331873 62.36681652 -92.96484375 76.12890625 Z M-13.875 150.4375 C-15.06194282 151.36659766 -16.24945452 152.29496898 -17.4375 153.22265625 C-18.33662109 153.92672607 -18.33662109 153.92672607 -19.25390625 154.64501953 C-21.76549296 156.59402768 -24.32017419 158.48317926 -26.875 160.375 C-32.30618508 164.42488501 -37.59104325 168.64089925 -42.83740234 172.92724609 C-45.48371995 175.072351 -47.99474553 176.9969157 -50.94140625 178.7265625 C-51.62074219 179.14679688 -52.30007812 179.56703125 -53 180 C-53 180.66 -53 181.32 -53 182 C-54.65 182.66 -56.3 183.32 -58 184 C-58 184.66 -58 185.32 -58 186 C-59.65 186.66 -61.3 187.32 -63 188 C-63 188.66 -63 189.32 -63 190 C-64.98 190.495 -64.98 190.495 -67 191 C-67 191.66 -67 192.32 -67 193 C-67.59095459 193.27779297 -68.18190918 193.55558594 -68.79077148 193.84179688 C-70.85760098 194.92534634 -72.53120357 196.07658821 -74.34765625 197.53125 C-74.95287109 198.01207031 -75.55808594 198.49289062 -76.18164062 198.98828125 C-76.80232422 199.48714844 -77.42300781 199.98601562 -78.0625 200.5 C-79.30261128 201.49055328 -80.54347004 202.48017165 -81.78515625 203.46875 C-82.33051025 203.90638672 -82.87586426 204.34402344 -83.43774414 204.79492188 C-84.9093247 205.93005575 -86.45362199 206.96908133 -88 208 C-88 208.66 -88 209.32 -88 210 C-88.54140625 210.23460937 -89.0828125 210.46921875 -89.640625 210.7109375 C-92.65591544 212.3583644 -95.11184012 214.42653344 -97.75 216.625 C-98.73484375 217.44226563 -99.7196875 218.25953125 -100.734375 219.1015625 C-101.48203125 219.72804688 -102.2296875 220.35453125 -103 221 C-101.31534331 232.04386053 -95.89406379 242.10593621 -88 250 C-87.34 250 -86.68 250 -86 250 C-86 250.66 -86 251.32 -86 252 C-74.98988961 260.40985027 -63.43516039 261.98506268 -50 261 C-39.58913482 259.31630213 -29.49606386 253.34593635 -23 245 C-23 244.34 -23 243.68 -23 243 C-22.34 243 -21.68 243 -21 243 C-6.53143432 217.80193617 -4.979358 191.01918628 -4.875 162.5625 C-4.87016602 161.274646 -4.86533203 159.98679199 -4.86035156 158.65991211 C-4.86373535 156.85018921 -4.86373535 156.85018921 -4.8671875 155.00390625 C-4.86887939 153.37690796 -4.86887939 153.37690796 -4.87060547 151.71704102 C-4.88170835 148.90363917 -4.88170835 148.90363917 -6 146 C-9.27837404 146 -11.39939276 148.47176616 -13.875 150.4375 Z " fill="#050505" transform="translate(297,87)"/>
</svg>
